<mxfile host="Electron" modified="2024-07-17T08:08:11.228Z" agent="Mozilla/5.0 (Macintosh; Intel Mac OS X 10_15_7) AppleWebKit/537.36 (KHTML, like Gecko) draw.io/24.4.8 Chrome/124.0.6367.207 Electron/30.0.6 Safari/537.36" etag="zUcxEWzqI3t4q7cXAPvs" version="24.4.8" type="device">
  <diagram name="第 1 页" id="aTHnjBnui7KfDUsxUF9w">
    <mxGraphModel dx="1920" dy="724" grid="1" gridSize="10" guides="1" tooltips="1" connect="1" arrows="1" fold="1" page="1" pageScale="1" pageWidth="827" pageHeight="1169" math="0" shadow="0">
      <root>
        <mxCell id="0" />
        <mxCell id="1" parent="0" />
        <mxCell id="Vwd7q3a6wM7XlQta3hqy-2" style="edgeStyle=orthogonalEdgeStyle;rounded=0;orthogonalLoop=1;jettySize=auto;html=1;entryX=0.5;entryY=0;entryDx=0;entryDy=0;" edge="1" parent="1" source="Vwd7q3a6wM7XlQta3hqy-1" target="Vwd7q3a6wM7XlQta3hqy-4">
          <mxGeometry relative="1" as="geometry">
            <mxPoint x="414" y="190" as="targetPoint" />
          </mxGeometry>
        </mxCell>
        <mxCell id="Vwd7q3a6wM7XlQta3hqy-3" value="refresh" style="edgeLabel;html=1;align=center;verticalAlign=middle;resizable=0;points=[];" vertex="1" connectable="0" parent="Vwd7q3a6wM7XlQta3hqy-2">
          <mxGeometry x="-0.0642" y="1" relative="1" as="geometry">
            <mxPoint as="offset" />
          </mxGeometry>
        </mxCell>
        <mxCell id="Vwd7q3a6wM7XlQta3hqy-1" value="INIT" style="rounded=0;whiteSpace=wrap;html=1;" vertex="1" parent="1">
          <mxGeometry x="354" y="40" width="120" height="60" as="geometry" />
        </mxCell>
        <mxCell id="Vwd7q3a6wM7XlQta3hqy-5" style="edgeStyle=orthogonalEdgeStyle;rounded=0;orthogonalLoop=1;jettySize=auto;html=1;" edge="1" parent="1" source="Vwd7q3a6wM7XlQta3hqy-4">
          <mxGeometry relative="1" as="geometry">
            <mxPoint x="530" y="220" as="targetPoint" />
          </mxGeometry>
        </mxCell>
        <mxCell id="Vwd7q3a6wM7XlQta3hqy-6" value="refresh" style="edgeLabel;html=1;align=center;verticalAlign=middle;resizable=0;points=[];" vertex="1" connectable="0" parent="Vwd7q3a6wM7XlQta3hqy-5">
          <mxGeometry x="-0.1615" y="1" relative="1" as="geometry">
            <mxPoint as="offset" />
          </mxGeometry>
        </mxCell>
        <mxCell id="Vwd7q3a6wM7XlQta3hqy-8" style="edgeStyle=orthogonalEdgeStyle;rounded=0;orthogonalLoop=1;jettySize=auto;html=1;" edge="1" parent="1" source="Vwd7q3a6wM7XlQta3hqy-4">
          <mxGeometry relative="1" as="geometry">
            <mxPoint x="414" y="320.0000000000001" as="targetPoint" />
          </mxGeometry>
        </mxCell>
        <mxCell id="Vwd7q3a6wM7XlQta3hqy-9" value="req" style="edgeLabel;html=1;align=center;verticalAlign=middle;resizable=0;points=[];" vertex="1" connectable="0" parent="Vwd7q3a6wM7XlQta3hqy-8">
          <mxGeometry x="-0.2124" y="1" relative="1" as="geometry">
            <mxPoint as="offset" />
          </mxGeometry>
        </mxCell>
        <mxCell id="Vwd7q3a6wM7XlQta3hqy-4" value="IDLE" style="rounded=0;whiteSpace=wrap;html=1;" vertex="1" parent="1">
          <mxGeometry x="354" y="190" width="120" height="60" as="geometry" />
        </mxCell>
        <mxCell id="Vwd7q3a6wM7XlQta3hqy-7" value="REFRESH" style="rounded=0;whiteSpace=wrap;html=1;" vertex="1" parent="1">
          <mxGeometry x="530" y="190" width="120" height="60" as="geometry" />
        </mxCell>
        <mxCell id="Vwd7q3a6wM7XlQta3hqy-11" value="" style="endArrow=classic;html=1;rounded=0;" edge="1" parent="1">
          <mxGeometry width="50" height="50" relative="1" as="geometry">
            <mxPoint x="414" y="320" as="sourcePoint" />
            <mxPoint x="414" y="390" as="targetPoint" />
          </mxGeometry>
        </mxCell>
        <mxCell id="Vwd7q3a6wM7XlQta3hqy-12" value="row hit" style="edgeLabel;html=1;align=center;verticalAlign=middle;resizable=0;points=[];" vertex="1" connectable="0" parent="Vwd7q3a6wM7XlQta3hqy-11">
          <mxGeometry x="-0.1208" y="1" relative="1" as="geometry">
            <mxPoint as="offset" />
          </mxGeometry>
        </mxCell>
        <mxCell id="Vwd7q3a6wM7XlQta3hqy-13" value="" style="endArrow=classic;html=1;rounded=0;" edge="1" parent="1">
          <mxGeometry width="50" height="50" relative="1" as="geometry">
            <mxPoint x="414" y="390" as="sourcePoint" />
            <mxPoint x="330" y="440" as="targetPoint" />
          </mxGeometry>
        </mxCell>
        <mxCell id="Vwd7q3a6wM7XlQta3hqy-14" value="" style="endArrow=classic;html=1;rounded=0;" edge="1" parent="1">
          <mxGeometry width="50" height="50" relative="1" as="geometry">
            <mxPoint x="414" y="390" as="sourcePoint" />
            <mxPoint x="490" y="440" as="targetPoint" />
          </mxGeometry>
        </mxCell>
        <mxCell id="Vwd7q3a6wM7XlQta3hqy-15" value="WRITE0" style="rounded=0;whiteSpace=wrap;html=1;" vertex="1" parent="1">
          <mxGeometry x="250" y="440" width="120" height="60" as="geometry" />
        </mxCell>
        <mxCell id="Vwd7q3a6wM7XlQta3hqy-16" value="READ" style="rounded=0;whiteSpace=wrap;html=1;" vertex="1" parent="1">
          <mxGeometry x="440" y="440" width="120" height="60" as="geometry" />
        </mxCell>
        <mxCell id="Vwd7q3a6wM7XlQta3hqy-17" value="" style="endArrow=classic;html=1;rounded=0;" edge="1" parent="1">
          <mxGeometry width="50" height="50" relative="1" as="geometry">
            <mxPoint x="414" y="320" as="sourcePoint" />
            <mxPoint x="510" y="340" as="targetPoint" />
          </mxGeometry>
        </mxCell>
        <mxCell id="Vwd7q3a6wM7XlQta3hqy-18" value="row miss" style="edgeLabel;html=1;align=center;verticalAlign=middle;resizable=0;points=[];" vertex="1" connectable="0" parent="Vwd7q3a6wM7XlQta3hqy-17">
          <mxGeometry x="0.0393" y="1" relative="1" as="geometry">
            <mxPoint as="offset" />
          </mxGeometry>
        </mxCell>
        <mxCell id="Vwd7q3a6wM7XlQta3hqy-20" value="targetState" style="text;html=1;align=center;verticalAlign=middle;resizable=0;points=[];autosize=1;strokeColor=none;fillColor=none;" vertex="1" parent="1">
          <mxGeometry x="510" y="328" width="80" height="30" as="geometry" />
        </mxCell>
        <mxCell id="Vwd7q3a6wM7XlQta3hqy-21" value="" style="endArrow=classic;html=1;rounded=0;" edge="1" parent="1" source="Vwd7q3a6wM7XlQta3hqy-20">
          <mxGeometry width="50" height="50" relative="1" as="geometry">
            <mxPoint x="470" y="420" as="sourcePoint" />
            <mxPoint x="420" y="390" as="targetPoint" />
          </mxGeometry>
        </mxCell>
        <mxCell id="Vwd7q3a6wM7XlQta3hqy-22" value="" style="endArrow=classic;html=1;rounded=0;" edge="1" parent="1">
          <mxGeometry width="50" height="50" relative="1" as="geometry">
            <mxPoint x="500" y="500" as="sourcePoint" />
            <mxPoint x="500" y="550" as="targetPoint" />
          </mxGeometry>
        </mxCell>
        <mxCell id="Vwd7q3a6wM7XlQta3hqy-23" value="READ_WAIT" style="rounded=0;whiteSpace=wrap;html=1;" vertex="1" parent="1">
          <mxGeometry x="440" y="550" width="120" height="60" as="geometry" />
        </mxCell>
        <mxCell id="Vwd7q3a6wM7XlQta3hqy-24" value="" style="endArrow=classic;startArrow=classic;html=1;rounded=0;" edge="1" parent="1" target="Vwd7q3a6wM7XlQta3hqy-25">
          <mxGeometry width="50" height="50" relative="1" as="geometry">
            <mxPoint x="580" y="350" as="sourcePoint" />
            <mxPoint x="670" y="350" as="targetPoint" />
          </mxGeometry>
        </mxCell>
        <mxCell id="Vwd7q3a6wM7XlQta3hqy-25" value="ACTIVE" style="rounded=0;whiteSpace=wrap;html=1;" vertex="1" parent="1">
          <mxGeometry x="680" y="320" width="120" height="60" as="geometry" />
        </mxCell>
        <mxCell id="Vwd7q3a6wM7XlQta3hqy-26" value="" style="endArrow=classic;html=1;rounded=0;entryX=0.75;entryY=1;entryDx=0;entryDy=0;exitX=0.75;exitY=0;exitDx=0;exitDy=0;" edge="1" parent="1" source="Vwd7q3a6wM7XlQta3hqy-23" target="Vwd7q3a6wM7XlQta3hqy-16">
          <mxGeometry width="50" height="50" relative="1" as="geometry">
            <mxPoint x="525" y="550" as="sourcePoint" />
            <mxPoint x="575" y="500" as="targetPoint" />
          </mxGeometry>
        </mxCell>
        <mxCell id="Vwd7q3a6wM7XlQta3hqy-27" value="read cmd" style="edgeLabel;html=1;align=center;verticalAlign=middle;resizable=0;points=[];" vertex="1" connectable="0" parent="Vwd7q3a6wM7XlQta3hqy-26">
          <mxGeometry x="0.09" y="-1" relative="1" as="geometry">
            <mxPoint x="1" as="offset" />
          </mxGeometry>
        </mxCell>
        <mxCell id="Vwd7q3a6wM7XlQta3hqy-28" value="" style="endArrow=classic;html=1;rounded=0;exitX=0.5;exitY=1;exitDx=0;exitDy=0;entryX=0.5;entryY=0;entryDx=0;entryDy=0;" edge="1" parent="1" source="Vwd7q3a6wM7XlQta3hqy-23" target="Vwd7q3a6wM7XlQta3hqy-29">
          <mxGeometry width="50" height="50" relative="1" as="geometry">
            <mxPoint x="420" y="600" as="sourcePoint" />
            <mxPoint x="540" y="690" as="targetPoint" />
          </mxGeometry>
        </mxCell>
        <mxCell id="Vwd7q3a6wM7XlQta3hqy-29" value="IDLE" style="rounded=0;whiteSpace=wrap;html=1;" vertex="1" parent="1">
          <mxGeometry x="354" y="680" width="120" height="60" as="geometry" />
        </mxCell>
        <mxCell id="Vwd7q3a6wM7XlQta3hqy-30" value="" style="endArrow=classic;html=1;rounded=0;" edge="1" parent="1">
          <mxGeometry width="50" height="50" relative="1" as="geometry">
            <mxPoint x="304" y="500" as="sourcePoint" />
            <mxPoint x="304" y="550" as="targetPoint" />
          </mxGeometry>
        </mxCell>
        <mxCell id="Vwd7q3a6wM7XlQta3hqy-31" value="WRITE1" style="rounded=0;whiteSpace=wrap;html=1;" vertex="1" parent="1">
          <mxGeometry x="250" y="550" width="120" height="60" as="geometry" />
        </mxCell>
        <mxCell id="Vwd7q3a6wM7XlQta3hqy-32" value="" style="endArrow=classic;html=1;rounded=0;entryX=0.5;entryY=0;entryDx=0;entryDy=0;" edge="1" parent="1" target="Vwd7q3a6wM7XlQta3hqy-29">
          <mxGeometry width="50" height="50" relative="1" as="geometry">
            <mxPoint x="304" y="610" as="sourcePoint" />
            <mxPoint x="354" y="560" as="targetPoint" />
          </mxGeometry>
        </mxCell>
        <mxCell id="Vwd7q3a6wM7XlQta3hqy-33" value="" style="endArrow=classic;html=1;rounded=0;entryX=0.75;entryY=1;entryDx=0;entryDy=0;exitX=0.75;exitY=0;exitDx=0;exitDy=0;" edge="1" parent="1" source="Vwd7q3a6wM7XlQta3hqy-31" target="Vwd7q3a6wM7XlQta3hqy-15">
          <mxGeometry width="50" height="50" relative="1" as="geometry">
            <mxPoint x="340" y="550" as="sourcePoint" />
            <mxPoint x="390" y="500" as="targetPoint" />
          </mxGeometry>
        </mxCell>
        <mxCell id="Vwd7q3a6wM7XlQta3hqy-34" value="write cmd" style="edgeLabel;html=1;align=center;verticalAlign=middle;resizable=0;points=[];" vertex="1" connectable="0" parent="Vwd7q3a6wM7XlQta3hqy-33">
          <mxGeometry x="0.0338" y="-1" relative="1" as="geometry">
            <mxPoint as="offset" />
          </mxGeometry>
        </mxCell>
        <mxCell id="Vwd7q3a6wM7XlQta3hqy-35" value="DELAY" style="ellipse;whiteSpace=wrap;html=1;aspect=fixed;" vertex="1" parent="1">
          <mxGeometry x="670" y="490" width="80" height="80" as="geometry" />
        </mxCell>
        <mxCell id="Vwd7q3a6wM7XlQta3hqy-36" value="" style="endArrow=classic;html=1;rounded=0;entryX=0.5;entryY=1;entryDx=0;entryDy=0;" edge="1" parent="1" target="Vwd7q3a6wM7XlQta3hqy-35">
          <mxGeometry width="50" height="50" relative="1" as="geometry">
            <mxPoint x="560" y="585" as="sourcePoint" />
            <mxPoint x="710" y="585" as="targetPoint" />
            <Array as="points">
              <mxPoint x="710" y="585" />
            </Array>
          </mxGeometry>
        </mxCell>
        <mxCell id="Vwd7q3a6wM7XlQta3hqy-37" value="" style="endArrow=classic;html=1;rounded=0;entryX=0.5;entryY=0;entryDx=0;entryDy=0;" edge="1" parent="1" target="Vwd7q3a6wM7XlQta3hqy-35">
          <mxGeometry width="50" height="50" relative="1" as="geometry">
            <mxPoint x="740" y="380" as="sourcePoint" />
            <mxPoint x="790" y="330" as="targetPoint" />
            <Array as="points">
              <mxPoint x="740" y="490" />
            </Array>
          </mxGeometry>
        </mxCell>
        <mxCell id="Vwd7q3a6wM7XlQta3hqy-38" value="chip" style="whiteSpace=wrap;html=1;aspect=fixed;" vertex="1" parent="1">
          <mxGeometry x="550" y="890" width="140" height="140" as="geometry" />
        </mxCell>
        <mxCell id="Vwd7q3a6wM7XlQta3hqy-39" value="" style="endArrow=classic;html=1;rounded=0;" edge="1" parent="1">
          <mxGeometry width="50" height="50" relative="1" as="geometry">
            <mxPoint x="550" y="1010" as="sourcePoint" />
            <mxPoint x="440" y="1010" as="targetPoint" />
          </mxGeometry>
        </mxCell>
        <mxCell id="Vwd7q3a6wM7XlQta3hqy-40" value="sdram_data_input_i" style="text;html=1;align=center;verticalAlign=middle;resizable=0;points=[];autosize=1;strokeColor=none;fillColor=none;" vertex="1" parent="1">
          <mxGeometry x="310" y="1000" width="130" height="30" as="geometry" />
        </mxCell>
        <mxCell id="Vwd7q3a6wM7XlQta3hqy-41" value="" style="endArrow=classic;html=1;rounded=0;" edge="1" parent="1">
          <mxGeometry width="50" height="50" relative="1" as="geometry">
            <mxPoint x="310" y="1010" as="sourcePoint" />
            <mxPoint x="230" y="1010" as="targetPoint" />
          </mxGeometry>
        </mxCell>
        <mxCell id="Vwd7q3a6wM7XlQta3hqy-49" value="16" style="edgeLabel;html=1;align=center;verticalAlign=middle;resizable=0;points=[];" vertex="1" connectable="0" parent="Vwd7q3a6wM7XlQta3hqy-41">
          <mxGeometry x="-0.5068" relative="1" as="geometry">
            <mxPoint as="offset" />
          </mxGeometry>
        </mxCell>
        <mxCell id="Vwd7q3a6wM7XlQta3hqy-42" value="sdram_data_in_w" style="text;html=1;align=center;verticalAlign=middle;resizable=0;points=[];autosize=1;strokeColor=none;fillColor=none;" vertex="1" parent="1">
          <mxGeometry x="110" y="990" width="120" height="30" as="geometry" />
        </mxCell>
        <mxCell id="Vwd7q3a6wM7XlQta3hqy-43" value="" style="endArrow=classic;html=1;rounded=0;" edge="1" parent="1">
          <mxGeometry width="50" height="50" relative="1" as="geometry">
            <mxPoint x="110" y="1010" as="sourcePoint" />
            <mxPoint x="30" y="1010" as="targetPoint" />
          </mxGeometry>
        </mxCell>
        <mxCell id="Vwd7q3a6wM7XlQta3hqy-45" value="clk" style="edgeLabel;html=1;align=center;verticalAlign=middle;resizable=0;points=[];" vertex="1" connectable="0" parent="Vwd7q3a6wM7XlQta3hqy-43">
          <mxGeometry x="-0.0295" y="-2" relative="1" as="geometry">
            <mxPoint as="offset" />
          </mxGeometry>
        </mxCell>
        <mxCell id="Vwd7q3a6wM7XlQta3hqy-50" value="16" style="edgeLabel;html=1;align=center;verticalAlign=middle;resizable=0;points=[];" vertex="1" connectable="0" parent="Vwd7q3a6wM7XlQta3hqy-43">
          <mxGeometry x="-0.6886" y="-1" relative="1" as="geometry">
            <mxPoint as="offset" />
          </mxGeometry>
        </mxCell>
        <mxCell id="Vwd7q3a6wM7XlQta3hqy-44" value="sample_data0_q" style="text;html=1;align=center;verticalAlign=middle;resizable=0;points=[];autosize=1;strokeColor=none;fillColor=none;" vertex="1" parent="1">
          <mxGeometry x="-80" y="990" width="110" height="30" as="geometry" />
        </mxCell>
        <mxCell id="Vwd7q3a6wM7XlQta3hqy-46" value="" style="endArrow=classic;html=1;rounded=0;" edge="1" parent="1">
          <mxGeometry width="50" height="50" relative="1" as="geometry">
            <mxPoint x="-80" y="1010" as="sourcePoint" />
            <mxPoint x="-160" y="1010" as="targetPoint" />
          </mxGeometry>
        </mxCell>
        <mxCell id="Vwd7q3a6wM7XlQta3hqy-47" value="clk" style="edgeLabel;html=1;align=center;verticalAlign=middle;resizable=0;points=[];" vertex="1" connectable="0" parent="Vwd7q3a6wM7XlQta3hqy-46">
          <mxGeometry x="-0.075" y="2" relative="1" as="geometry">
            <mxPoint as="offset" />
          </mxGeometry>
        </mxCell>
        <mxCell id="Vwd7q3a6wM7XlQta3hqy-51" value="16" style="edgeLabel;html=1;align=center;verticalAlign=middle;resizable=0;points=[];" vertex="1" connectable="0" parent="Vwd7q3a6wM7XlQta3hqy-46">
          <mxGeometry x="-0.7114" y="2" relative="1" as="geometry">
            <mxPoint as="offset" />
          </mxGeometry>
        </mxCell>
        <mxCell id="Vwd7q3a6wM7XlQta3hqy-48" value="sample_data_q" style="text;html=1;align=center;verticalAlign=middle;resizable=0;points=[];autosize=1;strokeColor=none;fillColor=none;" vertex="1" parent="1">
          <mxGeometry x="-260" y="990" width="110" height="30" as="geometry" />
        </mxCell>
        <mxCell id="Vwd7q3a6wM7XlQta3hqy-52" value="" style="endArrow=classic;html=1;rounded=0;" edge="1" parent="1">
          <mxGeometry width="50" height="50" relative="1" as="geometry">
            <mxPoint x="460" y="920" as="sourcePoint" />
            <mxPoint x="550" y="920" as="targetPoint" />
          </mxGeometry>
        </mxCell>
        <mxCell id="Vwd7q3a6wM7XlQta3hqy-53" value="sdram_data_output_o" style="text;html=1;align=center;verticalAlign=middle;resizable=0;points=[];autosize=1;strokeColor=none;fillColor=none;" vertex="1" parent="1">
          <mxGeometry x="320" y="908" width="140" height="30" as="geometry" />
        </mxCell>
        <mxCell id="Vwd7q3a6wM7XlQta3hqy-54" value="" style="endArrow=classic;html=1;rounded=0;" edge="1" parent="1">
          <mxGeometry width="50" height="50" relative="1" as="geometry">
            <mxPoint x="240" y="920" as="sourcePoint" />
            <mxPoint x="320" y="920" as="targetPoint" />
          </mxGeometry>
        </mxCell>
        <mxCell id="Vwd7q3a6wM7XlQta3hqy-55" value="data_q" style="text;html=1;align=center;verticalAlign=middle;resizable=0;points=[];autosize=1;strokeColor=none;fillColor=none;" vertex="1" parent="1">
          <mxGeometry x="170" y="908" width="60" height="30" as="geometry" />
        </mxCell>
        <mxCell id="Vwd7q3a6wM7XlQta3hqy-56" value="inport_write_data_i" style="text;html=1;align=center;verticalAlign=middle;resizable=0;points=[];autosize=1;strokeColor=none;fillColor=none;" vertex="1" parent="1">
          <mxGeometry x="-250" y="908" width="120" height="30" as="geometry" />
        </mxCell>
        <mxCell id="Vwd7q3a6wM7XlQta3hqy-57" value="" style="endArrow=classic;html=1;rounded=0;" edge="1" parent="1">
          <mxGeometry width="50" height="50" relative="1" as="geometry">
            <mxPoint x="-130" y="928" as="sourcePoint" />
            <mxPoint x="-60" y="928" as="targetPoint" />
          </mxGeometry>
        </mxCell>
        <mxCell id="Vwd7q3a6wM7XlQta3hqy-58" value="ram_write_data_w" style="text;html=1;align=center;verticalAlign=middle;resizable=0;points=[];autosize=1;strokeColor=none;fillColor=none;" vertex="1" parent="1">
          <mxGeometry x="-60" y="908" width="120" height="30" as="geometry" />
        </mxCell>
        <mxCell id="Vwd7q3a6wM7XlQta3hqy-59" value="" style="endArrow=classic;html=1;rounded=0;" edge="1" parent="1">
          <mxGeometry width="50" height="50" relative="1" as="geometry">
            <mxPoint x="50" y="930" as="sourcePoint" />
            <mxPoint x="160" y="930" as="targetPoint" />
          </mxGeometry>
        </mxCell>
        <mxCell id="Vwd7q3a6wM7XlQta3hqy-60" value="clk" style="edgeLabel;html=1;align=center;verticalAlign=middle;resizable=0;points=[];" vertex="1" connectable="0" parent="Vwd7q3a6wM7XlQta3hqy-59">
          <mxGeometry x="-0.0606" y="-2" relative="1" as="geometry">
            <mxPoint x="-1" as="offset" />
          </mxGeometry>
        </mxCell>
      </root>
    </mxGraphModel>
  </diagram>
</mxfile>
